<svg id="Layer_1" data-name="Layer 1" xmlns="http://www.w3.org/2000/svg" viewBox="0 0 200 88.56"><defs><style>.cls-1{fill:#ffcb85;}.cls-2{fill:#c2f2d0;}.cls-3{fill:#fdf5c9;}</style></defs><title>icons</title><path class="cls-1" d="M62.58,35a9.3,9.3,0,0,1-2.63.72,4.61,4.61,0,0,0,2-2.53,9.45,9.45,0,0,1-2.91,1.1,4.57,4.57,0,0,0-7.91,3.12,4.68,4.68,0,0,0,.12,1,13,13,0,0,1-9.43-4.77,4.48,4.48,0,0,0-.62,2.3,4.58,4.58,0,0,0,2,3.81,4.56,4.56,0,0,1-2.07-.57v.06a4.58,4.58,0,0,0,3.67,4.49,4.62,4.62,0,0,1-2.06.08,4.59,4.59,0,0,0,4.28,3.18,9.18,9.18,0,0,1-5.67,2A9.71,9.71,0,0,1,40.31,49a13,13,0,0,0,20-11c0-.19,0-.39,0-.59a9.24,9.24,0,0,0,2.29-2.37Z"/><path class="cls-2" d="M99.62,33.22c-2.37,0-2.67,0-3.6.05a6.44,6.44,0,0,0-2.12.41,4.46,4.46,0,0,0-2.55,2.55,6.42,6.42,0,0,0-.41,2.12c0,.93-.05,1.23-.05,3.6s0,2.67.05,3.6a6.44,6.44,0,0,0,.41,2.12,4.46,4.46,0,0,0,2.55,2.55,6.45,6.45,0,0,0,2.12.41c.93,0,1.23.05,3.6.05s2.67,0,3.6-.05a6.46,6.46,0,0,0,2.12-.41,4.46,4.46,0,0,0,2.55-2.55,6.44,6.44,0,0,0,.41-2.12c0-.93.05-1.23.05-3.6s0-2.67-.05-3.6a6.46,6.46,0,0,0-.41-2.12,4.46,4.46,0,0,0-2.55-2.55,6.43,6.43,0,0,0-2.12-.41C102.29,33.23,102,33.22,99.62,33.22Zm0,1.57c2.33,0,2.61,0,3.53.05a4.81,4.81,0,0,1,1.62.3,2.87,2.87,0,0,1,1.66,1.66,4.82,4.82,0,0,1,.3,1.62c0,.92.05,1.2.05,3.53s0,2.61-.05,3.53a4.92,4.92,0,0,1-.31,1.62,2.77,2.77,0,0,1-.65,1,2.72,2.72,0,0,1-1,.65,4.86,4.86,0,0,1-1.63.3c-.93,0-1.2.05-3.54.05s-2.61,0-3.54-.05a5,5,0,0,1-1.63-.31,2.7,2.7,0,0,1-1-.65,2.65,2.65,0,0,1-.66-1,5,5,0,0,1-.31-1.63c0-.92,0-1.2,0-3.53s0-2.61,0-3.54a5,5,0,0,1,.31-1.63,2.9,2.9,0,0,1,1.66-1.66A4.83,4.83,0,0,1,96,34.81c.93,0,1.2,0,3.54,0Zm0,2.68A4.48,4.48,0,1,0,104.1,42,4.48,4.48,0,0,0,99.62,37.47Zm0,7.4A2.91,2.91,0,1,1,102.53,42,2.91,2.91,0,0,1,99.62,44.86Zm5.71-7.57a1,1,0,1,1-1-1A1,1,0,0,1,105.33,37.29Z"/><path class="cls-3" d="M155.91,33.22H140.37a1,1,0,0,0-1,1V49.72a1,1,0,0,0,1,1h8.37V43.92h-2.28V41.29h2.28V39.34a3.18,3.18,0,0,1,3.39-3.48,18.83,18.83,0,0,1,2,.1v2.36h-1.4c-1.09,0-1.3.52-1.3,1.29v1.68h2.61l-.34,2.64h-2.27v6.76h4.45a1,1,0,0,0,1-1V34.18a1,1,0,0,0-1-1"/></svg>