<svg id="Layer_1" data-name="Layer 1" xmlns="http://www.w3.org/2000/svg" viewBox="0 0 200 88.56"><defs><style>.cls-1{fill:#fff;stroke:#754c29;stroke-miterlimit:10;stroke-width:2.46px;}.cls-2{fill:#c2f2d0;}.cls-3{fill:#fdf5c9;}.cls-4{fill:#ffcb85;}.cls-5{font-size:4.26px;font-family:DINCondensed-Bold, DIN Condensed;font-weight:700;}.cls-5,.cls-6{fill:#754c29;}</style></defs><title>lowgo</title><circle class="cls-1" cx="100" cy="44.28" r="33.68"/><path class="cls-2" d="M69,44.28A31,31,0,0,0,83.91,70.77,55.63,55.63,0,0,1,91.3,46.82a55.57,55.57,0,0,1-7.54-27.95c0-.34,0-.67,0-1A31,31,0,0,0,69,44.28Z"/><path class="cls-3" d="M91.3,46.82a55.63,55.63,0,0,0-7.39,23.95A30.92,30.92,0,0,0,117.3,70,56,56,0,0,1,91.3,46.82Z"/><path class="cls-4" d="M91.3,46.82A56,56,0,0,0,117.3,70,31,31,0,0,0,83.8,17.86c0,.34,0,.67,0,1A55.57,55.57,0,0,0,91.3,46.82Z"/><text class="cls-5" transform="translate(115.48 59.14)">DESIGN</text><path class="cls-6" d="M82.44,47.56a5.33,5.33,0,0,0-.46-2.4,3,3,0,0,0-1.42-1.36,5,5,0,0,0,.81-.58,3,3,0,0,0,.59-.71,3.18,3.18,0,0,0,.36-.94,6,6,0,0,0,.12-1.31v-.7a6.42,6.42,0,0,0-.25-1.81,4,4,0,0,0-.84-1.54,4.29,4.29,0,0,0-1.52-1.08,5.62,5.62,0,0,0-2.24-.4h-4V53.84h3.73a5.05,5.05,0,0,0,3.91-1.34,5.55,5.55,0,0,0,1.22-3.87Zm-2.63,1.61a2.54,2.54,0,0,1-.3,1,1.66,1.66,0,0,1-.71.67,2.9,2.9,0,0,1-1.3.24H76.32V45h1.21a3.24,3.24,0,0,1,1.21.19,1.59,1.59,0,0,1,.71.55,2.08,2.08,0,0,1,.34.9,8.8,8.8,0,0,1,.08,1.26C79.86,48.35,79.84,48.77,79.81,49.17Zm-.42-7.29a2.09,2.09,0,0,1-1.84.68H76.32V37.3h1.13a2.33,2.33,0,0,1,1.89.64,3,3,0,0,1,.52,1.93A3.52,3.52,0,0,1,79.39,41.88Z"/><path class="cls-6" d="M97.76,35.73a4.22,4.22,0,0,0-1.06,1.46,4.87,4.87,0,0,0-.4,2v10.1a4.85,4.85,0,0,0,.4,2.05,4.27,4.27,0,0,0,1.06,1.45,4.54,4.54,0,0,0,1.48.87,4.78,4.78,0,0,0,3.3,0,4.56,4.56,0,0,0,1.48-.87,4.29,4.29,0,0,0,1.06-1.45,4.85,4.85,0,0,0,.4-2.05V39.23a4.87,4.87,0,0,0-.4-2A4.24,4.24,0,0,0,104,35.73a4.61,4.61,0,0,0-1.48-.87,4.78,4.78,0,0,0-3.3,0A4.59,4.59,0,0,0,97.76,35.73Zm3.13,1.57a2,2,0,0,1,1.3.47,1.82,1.82,0,0,1,.55,1.46v10.1a1.82,1.82,0,0,1-.55,1.46,2,2,0,0,1-2.6,0A1.82,1.82,0,0,1,99,49.33V39.23a1.82,1.82,0,0,1,.55-1.46A2,2,0,0,1,100.89,37.3Z"/><path class="cls-6" d="M86.32,35.77a4.21,4.21,0,0,0-1.06,1.46,4.84,4.84,0,0,0-.4,2V49.32a4.82,4.82,0,0,0,.4,2,4.26,4.26,0,0,0,1.06,1.44,4.54,4.54,0,0,0,1.48.87,4.8,4.8,0,0,0,3.3,0,4.56,4.56,0,0,0,1.48-.87,4.28,4.28,0,0,0,1.06-1.44,4.82,4.82,0,0,0,.4-2V39.26a4.84,4.84,0,0,0-.4-2,4.23,4.23,0,0,0-1.06-1.46,4.61,4.61,0,0,0-1.48-.87,4.8,4.8,0,0,0-3.3,0A4.6,4.6,0,0,0,86.32,35.77Zm3.13,1.57a2,2,0,0,1,1.3.47,1.81,1.81,0,0,1,.55,1.46V49.32a1.81,1.81,0,0,1-.55,1.46,2,2,0,0,1-2.6,0,1.81,1.81,0,0,1-.55-1.46V39.26a1.81,1.81,0,0,1,.55-1.46A2,2,0,0,1,89.44,37.33Z"/><polygon class="cls-6" points="115.14 51.26 109.88 51.26 115.14 36.9 115.14 34.72 107.28 34.72 107.28 37.3 112.16 37.3 107.01 51.42 107.01 53.84 115.14 53.84 115.14 51.26"/><path class="cls-6" d="M119.14,49.73h3.73l.81,4.11h2.74l-4.27-19.12h-2.28L115.6,53.84h2.74ZM121,40.23H121l1.34,6.93h-2.74Z"/></svg>